<svg xmlns="http://www.w3.org/2000/svg" viewBox="0 0 300 275">
  <defs>
    <linearGradient id="jersey" x1="0" y1="0" x2="0.85" y2="1">
      <stop offset="0" stop-color="#75acf0"/>
      <stop offset="1" stop-color="#4f83dc"/>
    </linearGradient>
    <linearGradient id="fur" x1="0.2" y1="0" x2="0.8" y2="1">
      <stop offset="0" stop-color="#fffaf3"/>
      <stop offset="1" stop-color="#eee1d2"/>
    </linearGradient>
    <filter id="softShadow" x="-30%" y="-30%" width="160%" height="170%">
      <feGaussianBlur stdDeviation="4"/>
    </filter>
  </defs>

  <g transform="translate(30 35)" stroke="#46394c" stroke-linejoin="round" stroke-linecap="round">
    <ellipse cx="120" cy="199" rx="61" ry="9" fill="#352b3c" opacity=".17" stroke="none" filter="url(#softShadow)"/>

    <!-- Tail and grounded legs -->
    <path d="M66 127c-20-9-24-25-11-30 6 10 14 14 25 16Z" fill="url(#fur)" stroke-width="4.5"/>
    <path d="M84 172v20c0 9 18 10 20 1l3-17Z" fill="#eee2d5" stroke-width="4.5"/>
    <ellipse cx="94" cy="195" rx="13" ry="8" fill="#3c3243" stroke-width="3.5"/>
    <path d="m141 177 4 16c2 9 20 9 20 0v-22Z" fill="#eee2d5" stroke-width="4.5"/>
    <ellipse cx="155" cy="195" rx="13" ry="8" fill="#3c3243" stroke-width="3.5"/>

    <!-- Torso -->
    <path d="M69 115c10-22 87-25 105 3 13 20 2 59-28 67H91c-30-7-39-43-22-70Z" fill="url(#fur)" stroke-width="5"/>
    <path d="M72 126c31 12 72 11 99-1l1 28c-9 23-28 33-53 33-26 0-45-10-51-34Z" fill="url(#jersey)" stroke-width="5"/>
    <path d="M72 126c13 5 25 7 37 7v50H91c-9-2-17-7-23-14l-1-29c1-6 3-10 5-14Z" fill="#f8fbff" opacity=".94" stroke="none"/>
    <path d="M148 131c8-1 16-3 23-7l2 30c-4 11-12 20-25 26Z" fill="#f8fbff" opacity=".94" stroke="none"/>
    <path d="M88 130c21 6 44 6 65 1" fill="none" stroke="#dbeaff" stroke-width="3" opacity=".9"/>
    <path d="M103 128c10 3 23 3 34 0l-2 10c-9 3-21 3-30 0Z" fill="#fff" stroke-width="3"/>
    <path d="M75 154c4 14 11 21 22 26" fill="none" stroke="#fff" stroke-width="2.5" opacity=".48"/>
    <path d="M164 147c-2 13-6 22-13 29" fill="none" stroke="#3d72c8" stroke-width="2" opacity=".35"/>

    <!-- Vector 10, deliberately smaller than v2 -->
    <path d="m106 144 8-7h5v31h-8v-22l-5 3Z" fill="#fff" stroke-width="2.2"/>
    <rect x="124" y="137" width="22" height="33" rx="10" fill="#fff" stroke-width="2.2"/>
    <rect x="131" y="143" width="8" height="21" rx="4" fill="#5d8ee8" stroke="none"/>
    <path d="M82 139c4 0 7 3 7 7" fill="none" stroke="#f2c751" stroke-width="3"/>
    <circle cx="80" cy="137" r="3.5" fill="#f2c751" stroke-width="1.8"/>

    <!-- Horns and ears: all paths use the same winding direction -->
    <path d="M85 48C70 24 78 8 91 8c-3 17 2 25 14 34Z" fill="#dfcaa7" stroke-width="5"/>
    <path d="M155 48 135 42c12-9 17-17 14-34 13 0 21 16 6 40Z" fill="#dfcaa7" stroke-width="5"/>
    <path d="M84 40c-5-11-3-21 4-26" fill="none" stroke="#f4dfb5" stroke-width="3.5"/>
    <path d="M156 40c5-11 3-21-4-26" fill="none" stroke="#c3a477" stroke-width="3" opacity=".7"/>
    <path d="M82 53 55 45c-6 14 7 26 27 23Z" fill="#f0d5cd" stroke-width="4"/>
    <path d="M158 53v15c20 3 33-9 27-23Z" fill="#f0d5cd" stroke-width="4"/>
    <path d="m76 56-15-5c0 7 7 11 16 11" fill="none" stroke="#e99aae" stroke-width="3"/>
    <path d="m164 56 15-5c0 7-7 11-16 11" fill="none" stroke="#e99aae" stroke-width="3"/>

    <!-- Face -->
    <path d="M79 47c17-18 64-18 82 2 13 15 9 50-7 65-17 16-53 15-69-2-15-16-20-48-6-65Z" fill="url(#fur)" stroke-width="5"/>
    <path d="M89 52c16-12 45-15 66 1" fill="none" stroke="#fff" stroke-width="3" opacity=".72"/>
    <path d="M91 84c13-9 43-9 57 0l-4 20c-10 13-39 13-49 0Z" fill="#ead8c2" stroke="none"/>
    <ellipse cx="91" cy="92" rx="10" ry="6" fill="#ed9faf" opacity=".19" stroke="none"/>
    <ellipse cx="149" cy="92" rx="10" ry="6" fill="#ed9faf" opacity=".19" stroke="none"/>
    <path d="M96 65c5-3 10-3 14 0M131 65c5-3 10-3 14 0" fill="none" stroke="#665561" stroke-width="2.6"/>
    <ellipse cx="103" cy="73" rx="6" ry="8" fill="#362d39" stroke="none"/>
    <ellipse cx="138" cy="73" rx="6" ry="8" fill="#362d39" stroke="none"/>
    <circle cx="101" cy="70" r="2" fill="#fff" stroke="none"/>
    <circle cx="136" cy="70" r="2" fill="#fff" stroke="none"/>
    <path d="M116 88c2-2 6-2 8 0" fill="none" stroke="#665561" stroke-width="3"/>
    <path d="M111 96c6 5 13 5 19 0" fill="none" stroke-width="3.5"/>
    <path d="M109 108c5 4 17 4 22 0l-3 14-8-7-8 7Z" fill="#f8f2e9" stroke-width="3"/>

    <!-- Ball -->
    <circle cx="190" cy="188" r="18" fill="#fff" stroke-width="4"/>
    <path d="m190 177 7 5-3 8h-8l-3-8Z" fill="#46394c" stroke="none"/>
    <path d="m190 177 1-7m6 12 8-2m-11 10 6 8m-14-8-6 8m3-16-8-2" fill="none" stroke-width="2.5"/>
  </g>
</svg>
